LG_Walk_Normal10																		
version=1																		
nRows=55																		
nColumns=19																		
inDegrees=yes																		
endheader																		
time	ground_force2_vx	ground_force2_vy	ground_force2_vz	ground_force2_px	ground_force2_py	ground_force2_pz	ground_torque2_x	ground_torque2_y	ground_torque2_z	ground_force1_vx	ground_force1_vy	ground_force1_vz	ground_force1_px	ground_force1_py	ground_force1_pz	ground_torque1_x	ground_torque1_y	ground_torque1_z
4.625	0	0	0	0.2	0	-0.3	0	0	0	40.158443	240.603165	36.599174	-0.078563	0	0.370811	0	1.495641	0
4.626	0	0	0	0.2	0	-0.3	0	0	0	41.177719	241.805099	36.834122	-0.078563	0	0.37079	-2.00E-06	1.464593	0
4.627	0	0	0	0.2	0	-0.3	0	0	0	41.177719	243.846756	36.991108	-0.078304	0	0.37079	-6.00E-06	1.464593	-1.00E-06
4.628	0	0	0	0.2	0	-0.3	0	0	0	41.099869	244.045822	37.617508	-0.079405	0	0.369644	-6.00E-06	1.321467	-1.00E-06
4.629	0	0	0	0.2	0	-0.3	0	0	0	41.021297	244.045822	37.77425	-0.079074	0	0.3686	-4.00E-06	1.274518	-2.00E-06
4.63	0	0	0	0.2	0	-0.3	0	0	0	41.021297	245.92276	38.244354	-0.079927	0	0.368592	-4.00E-06	1.274518	-2.00E-06
4.631	0	0	0	0.2	0	-0.3	0	0	0	41.338474	250.731552	38.792747	-0.079175	0	0.368334	-5.00E-06	1.290776	-2.00E-06
4.632	0	0	0	0.2	0	-0.3	0	0	0	41.492733	250.919022	39.027821	-0.07987	0	0.367859	-5.00E-06	1.290776	-2.00E-06
4.633	0	0	0	0.2	0	-0.3	0	0	0	41.651321	252.107864	39.027821	-0.079175	0	0.367859	-3.00E-06	1.269313	-1.00E-06
4.634	0	0	0	0.2	0	-0.3	0	0	0	41.651321	253.308975	39.262695	-0.078849	0	0.365685	-2.00E-06	1.268021	-1.00E-06
4.635	0	0	0	0.2	0	-0.3	0	0	0	41.651321	254.171509	39.49736	-0.078849	0	0.365496	-1.00E-06	1.254197	-1.00E-06
4.636	0	0	0	0.2	0	-0.3	0	0	0	41.657097	263.260651	40.124489	-0.080549	0	0.365496	-1.00E-06	1.268021	-1.00E-06
4.637	0	0	0	0.2	0	-0.3	0	0	0	42.202774	264.299805	40.045715	-0.080549	0	0.364289	-1.00E-06	1.256006	-1.00E-06
4.638	0	0	0	0.2	0	-0.3	0	0	0	42.055008	264.299805	40.437691	-0.079818	0	0.364289	-1.00E-06	1.370689	-2.00E-06
4.639	0	0	0	0.2	0	-0.3	0	0	0	42.440655	266.184906	40.515739	-0.079549	0	0.364072	-4.00E-06	1.256006	-3.00E-06
4.64	0	0	0	0.2	0	-0.3	0	0	0	42.67926	267.55423	40.750572	-0.079549	0	0.363122	-2.00E-06	1.386214	-3.00E-06
4.641	0	0	0	0.2	0	-0.3	0	0	0	42.91642	273.579193	41.377254	-0.081304	0	0.362623	-4.00E-06	1.320759	-2.00E-06
4.642	0	0	0	0.2	0	-0.3	0	0	0	43.464264	277.515198	41.455547	-0.081304	0	0.362325	-2.00E-06	1.320759	-2.00E-06
4.643	0	0	0	0.2	0	-0.3	0	0	0	43.464264	277.522491	41.768948	-0.079904	0	0.361023	-4.00E-06	1.169223	-2.00E-06
4.644	0	0	0	0.2	0	-0.3	0	0	0	43.077892	277.685669	42.160397	-0.079904	0	0.361023	-4.00E-06	1.169223	-1.00E-06
4.645	0	0	0	0.2	0	-0.3	0	0	0	43.077892	284.028961	42.395672	-0.080292	0	0.361023	-5.00E-06	1.132111	-1.00E-06
4.646	0	0	0	0.2	0	-0.3	0	0	0	43.783604	285.885742	43.17902	-0.080292	0	0.361111	-7.00E-06	1.243655	-1.00E-06
4.647	0	0	0	0.2	0	-0.3	0	0	0	44.33289	285.885742	43.570591	-0.079917	0	0.362074	-7.00E-06	1.452268	0
4.648	0	0	0	0.2	0	-0.3	0	0	0	44.33289	291.906158	43.570591	-0.079917	0	0.362074	-5.00E-06	1.452268	0
4.649	0	0	0	0.2	0	-0.3	0	0	0	44.337944	292.954224	43.961842	-0.080556	0	0.35911	-5.00E-06	1.192027	0
4.65	0	0	0	0.2	0	-0.3	0	0	0	44.337944	301.198334	43.962124	-0.081565	0	0.358644	-6.00E-06	1.192027	0
4.651	0	0	0	0.2	0	-0.3	0	0	0	44.342991	305.143127	44.275322	-0.081565	0	0.358054	-6.00E-06	1.260643	-2.00E-06
4.652	0	0	0	0.2	0	-0.3	0	0	0	44.416515	307.368347	44.588444	-0.081199	0	0.357978	-6.00E-06	1.260643	-3.00E-06
4.653	0	0	0	0.2	0	-0.3	0	0	0	44.888668	312.861115	44.745186	-0.080802	0	0.357	-6.00E-06	1.174534	-2.00E-06
4.654	0	0	0	0.2	0	-0.3	0	0	0	44.888668	316.287506	44.901566	-0.080714	0	0.356903	-6.00E-06	1.116982	-2.00E-06
4.655	0	0	0	0.2	0	-0.3	0	0	0	44.814426	319.894806	45.057823	-0.080714	0	0.355426	-6.00E-06	1.116982	0
4.656	0	0	0	0.2	0	-0.3	0	0	0	44.814426	329.526733	45.528412	-0.081942	0	0.355426	-4.00E-06	1.140597	0
4.657	0	0	0	0.2	0	-0.3	0	0	0	44.976624	335.50119	46.154572	-0.081942	0	0.354695	-4.00E-06	1.140597	-1.00E-06
4.658	0	0	0	0.2	0	-0.3	0	0	0	45.056641	336.019257	46.154652	-0.081647	0	0.354677	-1.00E-05	1.170035	-1.00E-06
4.659	0	0	0	0.2	0	-0.3	0	0	0	45.140263	340.992401	46.467773	-0.080958	0	0.354489	-1.00E-05	1.068549	-1.00E-06
4.66	0	0	0	0.2	0	-0.3	0	0	0	45.140263	345.95282	46.859306	-0.081647	0	0.354489	-7.00E-06	1.042329	-2.00E-06
4.661	0	0	0	0.2	0	-0.3	0	0	0	45.140263	350.083923	47.407623	-0.081972	0	0.353971	0	1.042329	-2.00E-06
4.662	0	0	0	0.2	0	-0.3	0	0	0	45.45816	360.390503	47.720581	-0.081972	0	0.353788	0	1.053315	-2.00E-06
4.663	0	0	0	0.2	0	-0.3	0	0	0	45.463936	361.90448	47.877605	-0.081091	0	0.353557	-3.00E-06	1.053315	-1.00E-06
4.664	0	0	0	0.2	0	-0.3	0	0	0	45.463936	364.668274	48.738998	-0.081091	0	0.352997	-4.00E-06	1.033907	-1.00E-06
4.665	0	0	0	0.2	0	-0.3	0	0	0	45.463936	372.38266	48.895618	-0.081538	0	0.352997	-4.00E-06	1.033907	-2.00E-06
4.666	0	0	0	0.2	0	-0.3	0	0	0	46.331841	376.495667	49.286991	-0.081538	0	0.352997	-3.00E-06	1.155682	-2.00E-06
4.667	0	0	0	0.2	0	-0.3	0	0	0	46.331841	383.002441	49.835342	-0.081538	0	0.352208	-3.00E-06	1.173532	-3.00E-06
4.668	0	0	0	0.2	0	-0.3	0	0	0	46.567558	388.335114	49.835342	-0.080974	0	0.352059	-2.00E-06	1.155682	-2.00E-06
4.669	0	0	0	0.2	0	-0.3	0	0	0	46.567558	391.755768	49.835342	-0.0812	0	0.35029	-2.00E-06	1.071224	-4.00E-06
4.67	0	0	0	0.2	0	-0.3	0	0	0	46.962585	397.768402	49.834698	-0.0812	0	0.350276	-3.00E-06	1.071224	-2.00E-06
4.671	0	0	0	0.2	0	-0.3	0	0	0	47.591885	405.144623	49.834698	-0.081386	0	0.35029	-3.00E-06	1.097507	-2.00E-06
4.672	0	0	0	0.2	0	-0.3	0	0	0	47.594772	413.040009	49.991039	-0.081736	0	0.350216	-3.00E-06	1.114899	-1.00E-06
4.673	0	0	0	0.2	0	-0.3	0	0	0	47.675507	415.609741	50.147457	-0.081736	0	0.349353	-3.00E-06	1.101995	-1.00E-06
4.674	0	0	0	0.2	0	-0.3	0	0	0	47.675507	421.603577	50.147457	-0.081736	0	0.349247	-4.00E-06	1.114899	-1.00E-06
4.675	0	0	0	0.2	0	-0.3	0	0	0	47.764183	421.611237	50.147457	-0.081752	0	0.348406	-8.00E-06	1.160748	-1.00E-06
4.676	0	0	0	0.2	0	-0.3	0	0	0	47.764183	433.114716	50.225388	-0.081795	0	0.348406	-4.00E-06	1.192411	-1.00E-06
4.677	0	0	0	0.2	0	-0.3	0	0	0	47.997734	442.704529	50.225388	-0.081795	0	0.348817	-5.00E-06	1.234755	-2.00E-06
4.678	0	0	0	0.2	0	-0.3	0	0	0	48.316357	443.907257	50.146812	-0.081475	0	0.348817	-5.00E-06	1.192411	-2.00E-06
4.679	0	0	0	0.2	0	-0.3	0	0	0	48.316357	447.163574	50.068043	-0.081475	0	0.348397	-5.00E-06	1.281682	-1.00E-06
